# Blender v2.77 (sub 0) OBJ File: ''
# www.blender.org
mtllib Key Card.mtl
o key_card
v -0.065008 0.000000 -0.111748
v 0.000000 0.011816 -0.111748
v 0.000000 0.000000 -0.111748
v -0.065008 0.011816 -0.111748
v -0.070671 0.000000 -0.109718
v -0.070671 0.011816 -0.109718
v -0.072330 0.011816 -0.103973
v -0.072330 0.000000 -0.103973
v -0.072330 0.011816 0.000000
v -0.072330 0.000000 0.000000
v -0.072330 -0.000000 0.103973
v -0.072330 0.011816 0.103973
v -0.070671 -0.000000 0.109718
v -0.070671 0.011816 0.109718
v -0.065008 0.011816 0.111748
v -0.065008 -0.000000 0.111748
v 0.000000 0.011816 0.111748
v 0.000000 -0.000000 0.111748
v 0.065008 0.000000 -0.111748
v 0.065008 0.011816 -0.111748
v 0.070671 0.000000 -0.109718
v 0.070671 0.011816 -0.109718
v 0.072330 0.011816 -0.103973
v 0.072330 0.000000 -0.103973
v 0.072330 0.011816 0.000000
v 0.072330 0.000000 0.000000
v 0.072330 -0.000000 0.103973
v 0.072330 0.011816 0.103973
v 0.070671 -0.000000 0.109718
v 0.070671 0.011816 0.109718
v 0.065008 0.011816 0.111748
v 0.065008 -0.000000 0.111748
v -0.065008 0.011816 -0.103973
v -0.065008 0.011816 0.000000
v 0.000000 0.011816 -0.103973
v 0.065008 0.011816 -0.103973
v 0.065008 0.011816 0.000000
v 0.000000 0.011816 0.000000
v 0.000000 0.011816 0.103973
v 0.065008 0.011816 0.103973
v -0.065008 0.011816 0.103973
v -0.065008 0.000000 -0.103973
v 0.000000 0.000000 -0.103973
v -0.065008 0.000000 0.000000
v -0.065008 -0.000000 0.103973
v 0.000000 -0.000000 0.103973
v 0.000000 0.000000 0.000000
v 0.065008 0.000000 0.000000
v 0.065008 -0.000000 0.103973
v 0.065008 0.000000 -0.103973
vt 0.8164 0.9658
vt 0.9937 0.9337
vt 0.9937 0.9658
vt 0.8164 0.9337
vt 0.8003 0.9658
vt 0.8003 0.9337
vt 0.7837 0.9337
vt 0.7837 0.9658
vt 0.5005 0.9337
vt 0.5005 0.9658
vt 0.2177 0.9658
vt 0.2177 0.9337
vt 0.2013 0.9658
vt 0.2013 0.9337
vt 0.1849 0.9337
vt 0.1849 0.9658
vt 0.0080 0.9337
vt 0.0080 0.9658
vt 0.8164 0.9337
vt 0.9937 0.9337
vt 0.9937 0.9658
vt 0.8164 0.9658
vt 0.8003 0.9337
vt 0.8003 0.9658
vt 0.7837 0.9658
vt 0.7837 0.9337
vt 0.5005 0.9658
vt 0.5005 0.9337
vt 0.2177 0.9337
vt 0.2177 0.9658
vt 0.2013 0.9337
vt 0.2013 0.9658
vt 0.1849 0.9658
vt 0.1849 0.9337
vt 0.0080 0.9658
vt 0.0080 0.9337
vt 0.8203 0.8926
vt 0.8379 0.9100
vt 0.8203 0.9151
vt 0.8442 0.8926
vt 0.5005 0.9151
vt 0.8442 0.6929
vt 0.5005 0.8926
vt 0.8203 0.6929
vt 0.8203 0.4932
vt 0.8442 0.4932
vt 0.8379 0.4761
vt 0.8203 0.4707
vt 0.5005 0.4707
vt 0.5005 0.4932
vt 0.5005 0.6929
vt 0.1814 0.6929
vt 0.1814 0.4932
vt 0.1814 0.4707
vt 0.1637 0.4761
vt 0.1575 0.4932
vt 0.1575 0.6929
vt 0.1814 0.8926
vt 0.1575 0.8926
vt 0.1814 0.9151
vt 0.1637 0.9100
vt 0.8203 0.0327
vt 0.8379 0.0151
vt 0.8442 0.0327
vt 0.8203 0.0103
vt 0.8442 0.2324
vt 0.5005 0.0103
vt 0.8203 0.2324
vt 0.5005 0.0327
vt 0.1814 0.0327
vt 0.1814 0.0103
vt 0.1637 0.0151
vt 0.1575 0.0327
vt 0.1575 0.2324
vt 0.1814 0.2324
vt 0.5005 0.2324
vt 0.5005 0.4321
vt 0.1814 0.4321
vt 0.1575 0.4321
vt 0.1637 0.4497
vt 0.1814 0.4546
vt 0.5005 0.4546
vt 0.8203 0.4321
vt 0.8203 0.4546
vt 0.8442 0.4321
vt 0.8379 0.4497
vn -0.3045 -0.0000 -0.9525
vn 0.0000 0.0000 -1.0000
vn -0.0787 -0.0000 -0.9969
vn -0.7876 0.0000 -0.6162
vn -0.3374 0.0000 -0.9413
vn -0.7290 -0.0000 -0.6845
vn -0.9901 0.0000 -0.1401
vn -0.9894 0.0000 -0.1454
vn -1.0000 0.0000 0.0000
vn -0.9901 0.0000 0.1401
vn -0.7290 -0.0000 0.6845
vn -0.1713 -0.0000 0.9852
vn -0.1817 0.0000 0.9834
vn 0.0000 0.0000 1.0000
vn 0.1713 -0.0000 -0.9852
vn 0.7290 0.0000 -0.6845
vn 0.9901 0.0000 -0.1401
vn 1.0000 0.0000 0.0000
vn 0.9901 0.0000 0.1401
vn 0.7290 -0.0000 0.6845
vn 0.1713 -0.0000 0.9852
vn 0.1817 0.0000 0.9834
vn 0.0000 1.0000 0.0000
vn -0.0000 -1.0000 -0.0000
usemtl key_card_inst
s 1
f 1/1/1 2/2/2 3/3/2
f 2/2/2 1/1/2 4/4/3
f 5/5/4 4/4/3 1/1/1
f 4/4/5 5/5/5 6/6/6
f 5/5/4 7/7/7 6/6/6
f 7/7/7 5/5/4 8/8/8
f 8/8/8 9/9/9 7/7/7
f 9/9/9 8/8/9 10/10/9
f 11/11/10 9/9/9 10/10/9
f 9/9/9 11/11/10 12/12/10
f 13/13/11 12/12/10 11/11/10
f 12/12/10 13/13/11 14/14/11
f 14/14/11 13/13/11 15/15/12
f 15/15/12 13/13/11 16/16/13
f 17/17/14 15/15/12 16/16/13
f 17/17/14 16/16/14 18/18/14
f 19/19/15 3/20/2 2/21/2
f 19/19/15 2/21/2 20/22/15
f 19/19/15 20/22/15 21/23/16
f 21/23/16 20/22/15 22/24/16
f 23/25/17 21/23/16 22/24/16
f 21/23/16 23/25/17 24/26/17
f 25/27/18 24/26/17 23/25/17
f 24/26/17 25/27/18 26/28/18
f 25/27/18 27/29/19 26/28/18
f 27/29/19 25/27/18 28/30/19
f 28/30/19 29/31/20 27/29/19
f 29/31/20 28/30/19 30/32/20
f 29/31/20 30/32/20 31/33/21
f 31/33/21 32/34/22 29/31/20
f 31/33/21 17/35/14 32/34/22
f 18/36/14 32/34/14 17/35/14
f 33/37/23 6/38/23 7/39/23
f 6/38/23 33/37/23 4/40/23
f 9/41/23 33/37/23 7/39/23
f 33/37/23 2/42/23 4/40/23
f 34/43/23 33/37/23 9/41/23
f 33/37/23 35/44/23 2/42/23
f 34/43/23 35/44/23 33/37/23
f 36/45/23 2/42/23 35/44/23
f 2/42/23 36/45/23 20/46/23
f 36/45/23 22/47/23 20/46/23
f 22/47/23 36/45/23 23/48/23
f 36/45/23 25/49/23 23/48/23
f 35/44/23 37/50/23 36/45/23
f 25/49/23 36/45/23 37/50/23
f 34/43/23 38/51/23 35/44/23
f 37/50/23 35/44/23 38/51/23
f 39/52/23 38/51/23 34/43/23
f 39/52/23 37/50/23 38/51/23
f 40/53/23 25/49/23 37/50/23
f 40/53/23 37/50/23 39/52/23
f 25/49/23 40/53/23 28/54/23
f 40/53/23 30/55/23 28/54/23
f 30/55/23 40/53/23 31/56/23
f 17/57/23 31/56/23 40/53/23
f 17/57/23 40/53/23 39/52/23
f 39/52/23 41/58/23 17/57/23
f 41/58/23 39/52/23 34/43/23
f 41/58/23 34/43/23 9/41/23
f 15/59/23 17/57/23 41/58/23
f 9/41/23 12/60/23 41/58/23
f 41/58/23 14/61/23 15/59/23
f 14/61/23 41/58/23 12/60/23
f 42/62/24 5/63/24 1/64/24
f 5/63/24 42/62/24 8/65/24
f 3/66/24 42/62/24 1/64/24
f 42/62/24 10/67/24 8/65/24
f 42/62/24 3/66/24 43/68/24
f 10/67/24 42/62/24 44/69/24
f 43/68/24 44/69/24 42/62/24
f 45/70/24 10/67/24 44/69/24
f 11/71/24 10/67/24 45/70/24
f 45/70/24 13/72/24 11/71/24
f 13/72/24 45/70/24 16/73/24
f 18/74/24 16/73/24 45/70/24
f 45/70/24 44/69/24 46/75/24
f 18/74/24 45/70/24 46/75/24
f 44/69/24 43/68/24 47/76/24
f 46/75/24 44/69/24 47/76/24
f 48/77/24 47/76/24 43/68/24
f 46/75/24 47/76/24 48/77/24
f 46/75/24 49/78/24 18/74/24
f 49/78/24 46/75/24 48/77/24
f 32/79/24 18/74/24 49/78/24
f 49/78/24 29/80/24 32/79/24
f 29/80/24 49/78/24 27/81/24
f 26/82/24 27/81/24 49/78/24
f 49/78/24 48/77/24 26/82/24
f 48/77/24 50/83/24 26/82/24
f 48/77/24 43/68/24 50/83/24
f 50/83/24 43/68/24 3/66/24
f 26/82/24 50/83/24 24/84/24
f 50/83/24 3/66/24 19/85/24
f 50/83/24 21/86/24 24/84/24
f 21/86/24 50/83/24 19/85/24
